<svg xmlns="http://www.w3.org/2000/svg" width="16.395" height="17.883" viewBox="0 0 16.395 17.883">
  <g id="arrow-bar-left" transform="translate(-4.497 -4.5)">
    <path id="Path_5" data-name="Path 5" d="M10.242,10.342a.745.745,0,0,0-1.055,0L4.716,14.813a.745.745,0,0,0,0,1.055l4.471,4.471a.746.746,0,1,0,1.055-1.055L6.3,15.34,10.243,11.4a.745.745,0,0,0,0-1.055Z" transform="translate(0 -1.899)" fill="#1e1e1e" fill-rule="evenodd"/>
    <path id="Path_6" data-name="Path 6" d="M16.8,13.442a.745.745,0,0,0-.745-.745H6.37a.745.745,0,1,0,0,1.49h9.687A.745.745,0,0,0,16.8,13.442Zm3.726,8.942a.745.745,0,0,1-.745-.745V5.245a.745.745,0,0,1,1.49,0V21.638A.745.745,0,0,1,20.528,22.383Z" transform="translate(-0.381)" fill="#1e1e1e" fill-rule="evenodd"/>
  </g>
</svg>
