<svg xmlns="http://www.w3.org/2000/svg" width="25.532" height="16.854" viewBox="0 0 25.532 16.854">
  <path id="behance" d="M10.307,13.656s2.416-.188,2.416-3.14S10.747,6.122,8.241,6.122H0v16.5H8.241s5.032.165,5.032-4.873c0,0,.218-4.1-2.966-4.1Zm-6.676-4.6H8.241s1.121,0,1.121,1.716S8.7,12.738,7.954,12.738H3.631ZM8.007,19.693H3.631V15.281H8.241s1.67-.023,1.67,2.266c0,1.931-1.248,2.131-1.9,2.145Zm11.974-9.374c-6.092,0-6.087,6.342-6.087,6.342s-.416,6.309,6.087,6.309c0,0,5.417.324,5.417-4.389H22.613s.092,1.776-2.538,1.776a2.61,2.61,0,0,1-2.789-2.873h8.2s.905-7.166-5.506-7.166Zm2.479,4.962h-5.2a2.9,2.9,0,0,1,2.786-2.544,2.429,2.429,0,0,1,2.416,2.544Zm.648-8.19H16.574V9.127h6.534V7.091Z" transform="translate(0 -6.122)" fill="#74b0ff"/>
</svg>
