<svg xmlns="http://www.w3.org/2000/svg" width="26.599" height="26.598" viewBox="0 0 26.599 26.598">
  <path id="instagram" d="M16.3,3c-3.612,0-4.064.016-5.483.08A9.787,9.787,0,0,0,7.588,3.7,6.8,6.8,0,0,0,3.7,7.588a9.805,9.805,0,0,0-.619,3.228C3.015,12.234,3,12.687,3,16.3s.015,4.064.08,5.483A9.787,9.787,0,0,0,3.7,25.009a6.794,6.794,0,0,0,3.89,3.89,9.805,9.805,0,0,0,3.228.619c1.419.064,1.872.08,5.483.08s4.064-.016,5.483-.08A9.787,9.787,0,0,0,25.01,28.9a6.794,6.794,0,0,0,3.89-3.89,9.805,9.805,0,0,0,.619-3.228c.064-1.419.08-1.872.08-5.483s-.016-4.064-.08-5.483A9.787,9.787,0,0,0,28.9,7.588,6.794,6.794,0,0,0,25.01,3.7a9.805,9.805,0,0,0-3.228-.619C20.362,3.016,19.91,3,16.3,3m0,2.4c3.551,0,3.971.013,5.373.077a7.388,7.388,0,0,1,2.471.457,4.4,4.4,0,0,1,2.524,2.524,7.38,7.38,0,0,1,.457,2.469c.064,1.4.077,1.822.077,5.374s-.013,3.971-.077,5.373a7.435,7.435,0,0,1-.457,2.471,4.4,4.4,0,0,1-2.524,2.524,7.38,7.38,0,0,1-2.469.457c-1.4.064-1.822.077-5.374.077s-3.973-.013-5.373-.077a7.435,7.435,0,0,1-2.471-.457,4.4,4.4,0,0,1-2.524-2.524,7.334,7.334,0,0,1-.457-2.469C5.41,20.269,5.4,19.851,5.4,16.3s.013-3.971.077-5.373a7.388,7.388,0,0,1,.457-2.471A4.4,4.4,0,0,1,8.455,5.931a7.334,7.334,0,0,1,2.469-.457c1.4-.064,1.822-.077,5.374-.077m0,15.335A4.433,4.433,0,1,1,20.731,16.3,4.432,4.432,0,0,1,16.3,20.731m0-11.261A6.829,6.829,0,1,0,23.127,16.3,6.829,6.829,0,0,0,16.3,9.47m8.695-.27a1.6,1.6,0,1,1-1.6-1.6,1.6,1.6,0,0,1,1.6,1.6" transform="translate(-3 -3)" fill="#74b0ff" fill-rule="evenodd"/>
</svg>
