<svg xmlns="http://www.w3.org/2000/svg" width="20.214" height="15.478" viewBox="0 0 20.214 15.478">
  <g id="link" transform="translate(-1.091 -5.619)">
    <path id="Path_1" data-name="Path 1" d="M24.646,6.807a4.037,4.037,0,0,0-5.719,0l.955.955A2.7,2.7,0,0,1,23.7,11.577l-5.382,5.382A2.695,2.695,0,1,1,14.5,13.151l.948-.955-.948-.955-.955.955a4.041,4.041,0,0,0,5.733,5.7l5.382-5.382a4.037,4.037,0,0,0-.013-5.705Z" transform="translate(-4.529)" fill="#fff"/>
    <path id="Path_2" data-name="Path 2" d="M3.258,20.328a2.691,2.691,0,0,1,0-3.815L8.64,11.131a2.691,2.691,0,0,1,3.815,0,2.651,2.651,0,0,1,.767,1.918,2.691,2.691,0,0,1-.787,1.917l-1.426,1.447.955.955,1.426-1.426a4.049,4.049,0,0,0-5.725-5.725L2.282,15.6a4.007,4.007,0,0,0,2.866,6.87,4.084,4.084,0,0,0,2.879-1.184l-.955-.955a2.691,2.691,0,0,1-3.815,0Z" transform="translate(0 -1.371)" fill="#fff"/>
  </g>
</svg>
