<svg xmlns="http://www.w3.org/2000/svg" width="12" height="12" viewBox="0 0 12 12">
  <path id="times" d="M12.384,12.674a.935.935,0,0,1-.283.687l-1.374,1.374a.976.976,0,0,1-1.374,0l-2.97-2.97-2.97,2.97a.935.935,0,0,1-.687.283.935.935,0,0,1-.687-.283L.667,13.361a.976.976,0,0,1,0-1.374l2.97-2.97L.667,6.048a.976.976,0,0,1,0-1.374L2.04,3.3a.935.935,0,0,1,.687-.283.935.935,0,0,1,.687.283l2.97,2.97L9.353,3.3a.976.976,0,0,1,1.374,0L12.1,4.674a.976.976,0,0,1,0,1.374l-2.97,2.97,2.97,2.97a.935.935,0,0,1,.283.687Z" transform="translate(-0.384 -3.018)" fill="#1e1e1e"/>
</svg>
